<svg width="168" height="283" viewBox="0 0 168 283" fill="none" xmlns="http://www.w3.org/2000/svg">
<path fill-rule="evenodd" clip-rule="evenodd" d="M0 -7H168V184H0V-7Z" fill="#4AF6CD"/>
<path d="M60.22 148.36C60.22 145.2 60.68 142.42 61.6 140.02C62.52 137.58 63.9 135.4 65.74 133.48L71.62 138.46C69.34 141.34 68.2 144.36 68.2 147.52C68.2 149.16 68.52 150.42 69.16 151.3C69.76 152.14 70.62 152.56 71.74 152.56C72.54 152.56 73.2 152.34 73.72 151.9C74.24 151.46 74.74 150.72 75.22 149.68C75.7 148.64 76.3 147 77.02 144.76C78.38 140.48 80.1 137.36 82.18 135.4C84.22 133.4 87.06 132.4 90.7 132.4C93.34 132.4 95.68 133.08 97.72 134.44C99.72 135.8 101.28 137.78 102.4 140.38C103.52 142.94 104.08 145.96 104.08 149.44C104.08 156.08 102.06 161.5 98.02 165.7L91.96 160.24C94.68 156.92 96.04 153.46 96.04 149.86C96.04 147.98 95.64 146.52 94.84 145.48C94 144.44 92.9 143.92 91.54 143.92C90.58 143.92 89.8 144.12 89.2 144.52C88.56 144.92 88 145.64 87.52 146.68C87 147.68 86.44 149.16 85.84 151.12C84.36 155.84 82.58 159.16 80.5 161.08C78.42 163 75.8 163.96 72.64 163.96C70.16 163.96 67.98 163.3 66.1 161.98C64.22 160.62 62.78 158.76 61.78 156.4C60.74 154 60.22 151.32 60.22 148.36ZM89.02 94.9553C91.9 94.9553 94.48 95.5953 96.76 96.8753C99.04 98.1153 100.84 99.9953 102.16 102.515C103.44 105.035 104.08 108.115 104.08 111.755C104.08 117.275 102.74 121.455 100.06 124.295C97.34 127.135 93.66 128.555 89.02 128.555H61.3V117.455H88.66C91.18 117.455 93.04 117.015 94.24 116.135C95.4 115.215 95.98 113.755 95.98 111.755C95.98 109.755 95.38 108.315 94.18 107.435C92.98 106.555 91.14 106.115 88.66 106.115H61.3V94.9553H89.02ZM87.64 74.9477V78.0077H103V89.1077H61.3V74.6477C61.3 68.7677 62.36 64.3877 64.48 61.5077C66.6 58.5877 69.86 57.1277 74.26 57.1277C76.9 57.1277 79.1 57.7477 80.86 58.9877C82.62 60.1877 84.2 62.1277 85.6 64.8077L103 54.4277V66.7877L87.64 74.9477ZM80.08 78.0077V74.2877C80.08 70.4477 78.14 68.5277 74.26 68.5277C72.46 68.5277 71.14 69.0677 70.3 70.1477C69.46 71.1877 69.04 72.7677 69.04 74.8877V78.0077H80.08ZM103 51.9006H61.3V26.2806L69.16 27.4206V40.8006H79.18V29.0406H87.04V40.8006H103V51.9006Z" fill="white"/>
<path d="M60.22 260.92C60.22 255.36 61.98 250.58 65.5 246.58L71.2 252.04C70.12 253.56 69.34 254.94 68.86 256.18C68.34 257.38 68.08 258.76 68.08 260.32C68.08 263.32 69.24 265.68 71.56 267.4C73.88 269.08 77.42 269.92 82.18 269.92C85.66 269.92 88.42 269.64 90.46 269.08C92.46 268.52 93.9 267.68 94.78 266.56C95.66 265.4 96.1 263.92 96.1 262.12C96.1 260.32 95.72 258.68 94.96 257.2H86.38V261.94L78.76 263.02V246.46H99.52C100.96 248.62 102.08 251.06 102.88 253.78C103.68 256.5 104.08 259.18 104.08 261.82C104.08 274.86 96.76 281.38 82.12 281.38C77.56 281.38 73.64 280.5 70.36 278.74C67.04 276.94 64.52 274.5 62.8 271.42C61.08 268.34 60.22 264.84 60.22 260.92ZM60.22 223.335C60.22 217.295 62.14 212.595 65.98 209.235C69.82 205.875 75.2 204.195 82.12 204.195C86.64 204.195 90.56 204.955 93.88 206.475C97.16 207.955 99.68 210.135 101.44 213.015C103.2 215.895 104.08 219.335 104.08 223.335C104.08 229.375 102.16 234.075 98.32 237.435C94.48 240.755 89.08 242.415 82.12 242.415C77.6 242.415 73.7 241.675 70.42 240.195C67.14 238.675 64.62 236.495 62.86 233.655C61.1 230.775 60.22 227.335 60.22 223.335ZM68.2 223.335C68.2 225.935 69.28 227.855 71.44 229.095C73.6 230.295 77.16 230.895 82.12 230.895C87.08 230.895 90.66 230.275 92.86 229.035C95.02 227.795 96.1 225.895 96.1 223.335C96.1 220.695 95.02 218.775 92.86 217.575C90.7 216.375 87.12 215.775 82.12 215.775C77.16 215.775 73.6 216.375 71.44 217.575C69.28 218.775 68.2 220.695 68.2 223.335Z" fill="white"/>
<rect x="83" y="194" width="20" height="1" transform="rotate(-90 83 194)" fill="white"/>
</svg>
